<?xml version="1.0" encoding="UTF-8"?>
<svg version="1.1" xmlns="http://www.w3.org/2000/svg" width="64" height="64">
<path d="M0 0 C5.05847532 3.05028233 7.97859566 7.87211977 10.875 12.875 C13.38721511 23.42630345 9.80753565 31.86350836 4.40625 40.859375 C3.27900955 42.66139047 2.1434996 44.45825799 1 46.25 C0.43152344 47.15621094 -0.13695312 48.06242187 -0.72265625 48.99609375 C-3.58312436 53.54231337 -6.4934388 58.04911039 -9.5 62.5 C-11.77319336 62.33251953 -11.77319336 62.33251953 -14.5 61.5 C-16.38110352 59.20263672 -16.38110352 59.20263672 -18.12890625 56.1796875 C-18.77150391 55.0865625 -19.41410156 53.9934375 -20.07617188 52.8671875 C-20.73864242 51.7033305 -21.40074916 50.53926636 -22.0625 49.375 C-22.72185547 48.24578125 -23.38121094 47.1165625 -24.06054688 45.953125 C-25.33204293 43.7704966 -26.59494382 41.58283264 -27.84814453 39.38964844 C-28.8267752 37.67769565 -29.81399002 35.97052664 -30.81982422 34.27441406 C-34.48434192 28.08258577 -35.38066822 22.64774903 -34.5 15.5 C-32.18282111 8.11534577 -28.21259786 3.30567787 -21.5 -0.5 C-15.00873511 -2.66375496 -6.33310407 -2.79148471 0 0 Z M-20.5 14.5 C-22.19932147 17.43519164 -22.51645196 19.10515287 -22.375 22.5 C-21.36530833 25.9618 -19.96052585 27.89035137 -17.5 30.5 C-14.29139471 32.10430264 -10.9809543 31.98105318 -7.5 31.5 C-4.40748447 29.68482784 -2.91311286 28.21355858 -1.125 25.125 C-0.33556015 21.80935265 -0.54520698 19.77357609 -1.5 16.5 C-3.96633183 12.89699304 -3.96633183 12.89699304 -7.5 10.5 C-13.29730856 10.02481077 -16.3550575 9.98932728 -20.5 14.5 Z " fill="#E60027" transform="translate(43.5,1.5)"/>
<path d="M0 0 C0 3.96 0 7.92 0 12 C-1.6396875 12.556875 -1.6396875 12.556875 -3.3125 13.125 C-6.30173736 14.41649606 -7.01260623 15.01772752 -9 17.8125 C-10.16596858 21.52902486 -10.25425943 23.31561292 -9 27 C-6.00958739 30.63698831 -4.62730628 31.84317343 0 33 C0 43.23 0 53.46 0 64 C-3.91382502 62.69539166 -4.36306814 61.19693926 -6.43359375 57.6796875 C-7.08263672 56.5865625 -7.73167969 55.4934375 -8.40039062 54.3671875 C-9.07958962 53.20321983 -9.75862485 52.03915658 -10.4375 50.875 C-11.10587891 49.74578125 -11.77425781 48.6165625 -12.46289062 47.453125 C-14.32038457 44.30882405 -16.16114271 41.15522106 -18 38 C-18.43844238 37.26555664 -18.87688477 36.53111328 -19.32861328 35.77441406 C-22.98737216 29.58673427 -23.87965626 24.13953573 -23 17 C-20.68282111 9.61534577 -16.71259786 4.80567787 -10 1 C-6.52674819 -0.1577506 -3.63932552 -0.06866652 0 0 Z " fill="#FD0039" transform="translate(32,0)"/>
</svg>
